<mxfile host="app.diagrams.net" modified="2023-11-13T16:24:37.932Z" agent="Mozilla/5.0 (Windows NT 10.0; Win64; x64) AppleWebKit/537.36 (KHTML, like Gecko) Chrome/119.0.0.0 Safari/537.36" etag="-o_e0fIYXb0MssFnQsIL" version="22.1.0" type="device">
  <diagram name="Страница — 1" id="exRoIdw4ciyiwvsrpTVW">
    <mxGraphModel dx="1049" dy="555" grid="1" gridSize="10" guides="1" tooltips="1" connect="1" arrows="1" fold="1" page="1" pageScale="1" pageWidth="827" pageHeight="1169" math="0" shadow="0">
      <root>
        <mxCell id="0" />
        <mxCell id="1" parent="0" />
        <mxCell id="06UChs_v124DtHPbf5N7-69" value="" style="ellipse;whiteSpace=wrap;html=1;aspect=fixed;" parent="1" vertex="1">
          <mxGeometry x="90" y="1650" width="30" height="30" as="geometry" />
        </mxCell>
        <mxCell id="06UChs_v124DtHPbf5N7-70" style="edgeStyle=orthogonalEdgeStyle;rounded=0;orthogonalLoop=1;jettySize=auto;html=1;entryX=0.5;entryY=0;entryDx=0;entryDy=0;elbow=vertical;" parent="1" source="06UChs_v124DtHPbf5N7-71" target="06UChs_v124DtHPbf5N7-75" edge="1">
          <mxGeometry relative="1" as="geometry" />
        </mxCell>
        <mxCell id="06UChs_v124DtHPbf5N7-71" value="" style="rounded=0;whiteSpace=wrap;html=1;gradientColor=none;fillStyle=solid;fillColor=#000000;rotation=-90;" parent="1" vertex="1">
          <mxGeometry x="265" y="1385" width="80" height="30" as="geometry" />
        </mxCell>
        <mxCell id="06UChs_v124DtHPbf5N7-72" style="edgeStyle=orthogonalEdgeStyle;rounded=0;orthogonalLoop=1;jettySize=auto;html=1;entryX=0.5;entryY=0;entryDx=0;entryDy=0;elbow=vertical;" parent="1" source="06UChs_v124DtHPbf5N7-75" target="06UChs_v124DtHPbf5N7-85" edge="1">
          <mxGeometry relative="1" as="geometry">
            <Array as="points">
              <mxPoint x="350" y="1665" />
            </Array>
          </mxGeometry>
        </mxCell>
        <mxCell id="06UChs_v124DtHPbf5N7-73" style="edgeStyle=orthogonalEdgeStyle;rounded=0;orthogonalLoop=1;jettySize=auto;html=1;entryX=0.5;entryY=1;entryDx=0;entryDy=0;elbow=vertical;" parent="1" source="06UChs_v124DtHPbf5N7-75" target="06UChs_v124DtHPbf5N7-91" edge="1">
          <mxGeometry relative="1" as="geometry">
            <Array as="points">
              <mxPoint x="350" y="1665" />
            </Array>
          </mxGeometry>
        </mxCell>
        <mxCell id="06UChs_v124DtHPbf5N7-74" style="edgeStyle=orthogonalEdgeStyle;rounded=0;orthogonalLoop=1;jettySize=auto;html=1;entryX=0.5;entryY=0;entryDx=0;entryDy=0;elbow=vertical;" parent="1" source="06UChs_v124DtHPbf5N7-75" target="06UChs_v124DtHPbf5N7-96" edge="1">
          <mxGeometry relative="1" as="geometry" />
        </mxCell>
        <mxCell id="06UChs_v124DtHPbf5N7-75" value="" style="ellipse;whiteSpace=wrap;html=1;aspect=fixed;" parent="1" vertex="1">
          <mxGeometry x="335" y="1520" width="30" height="30" as="geometry" />
        </mxCell>
        <mxCell id="06UChs_v124DtHPbf5N7-76" style="edgeStyle=orthogonalEdgeStyle;rounded=0;orthogonalLoop=1;jettySize=auto;html=1;entryX=0;entryY=0.5;entryDx=0;entryDy=0;elbow=vertical;" parent="1" source="06UChs_v124DtHPbf5N7-78" target="06UChs_v124DtHPbf5N7-75" edge="1">
          <mxGeometry relative="1" as="geometry" />
        </mxCell>
        <mxCell id="06UChs_v124DtHPbf5N7-77" style="edgeStyle=orthogonalEdgeStyle;rounded=0;orthogonalLoop=1;jettySize=auto;html=1;entryX=1;entryY=0.5;entryDx=0;entryDy=0;elbow=vertical;" parent="1" edge="1">
          <mxGeometry relative="1" as="geometry">
            <mxPoint x="245" y="1540" as="sourcePoint" />
            <mxPoint x="189.99999999999864" y="1540" as="targetPoint" />
          </mxGeometry>
        </mxCell>
        <mxCell id="06UChs_v124DtHPbf5N7-78" value="" style="rounded=0;whiteSpace=wrap;html=1;gradientColor=none;fillStyle=solid;fillColor=#000000;rotation=90;" parent="1" vertex="1">
          <mxGeometry x="210" y="1530" width="80" height="10" as="geometry" />
        </mxCell>
        <mxCell id="06UChs_v124DtHPbf5N7-79" style="edgeStyle=orthogonalEdgeStyle;rounded=0;orthogonalLoop=1;jettySize=auto;html=1;entryX=0.5;entryY=1;entryDx=0;entryDy=0;elbow=vertical;" parent="1" edge="1">
          <mxGeometry relative="1" as="geometry">
            <mxPoint x="190" y="1530" as="sourcePoint" />
            <mxPoint x="245" y="1530" as="targetPoint" />
          </mxGeometry>
        </mxCell>
        <mxCell id="06UChs_v124DtHPbf5N7-80" value="1" style="ellipse;whiteSpace=wrap;html=1;aspect=fixed;" parent="1" vertex="1">
          <mxGeometry x="160" y="1520" width="30" height="30" as="geometry" />
        </mxCell>
        <mxCell id="06UChs_v124DtHPbf5N7-81" value="&lt;font style=&quot;font-size: 10px;&quot;&gt;t = exp(2)&lt;/font&gt;" style="text;html=1;strokeColor=none;fillColor=none;align=center;verticalAlign=middle;whiteSpace=wrap;rounded=0;" parent="1" vertex="1">
          <mxGeometry x="220" y="1580" width="60" height="20" as="geometry" />
        </mxCell>
        <mxCell id="06UChs_v124DtHPbf5N7-82" value="Надходження в магазин" style="text;html=1;strokeColor=none;fillColor=none;align=center;verticalAlign=middle;whiteSpace=wrap;rounded=0;" parent="1" vertex="1">
          <mxGeometry x="220" y="1460" width="60" height="30" as="geometry" />
        </mxCell>
        <mxCell id="06UChs_v124DtHPbf5N7-83" value="Повторна спроба купити" style="text;html=1;strokeColor=none;fillColor=none;align=center;verticalAlign=middle;whiteSpace=wrap;rounded=0;" parent="1" vertex="1">
          <mxGeometry x="325" y="1360" width="100" height="30" as="geometry" />
        </mxCell>
        <mxCell id="06UChs_v124DtHPbf5N7-84" style="edgeStyle=orthogonalEdgeStyle;rounded=0;orthogonalLoop=1;jettySize=auto;html=1;entryX=1;entryY=0.5;entryDx=0;entryDy=0;elbow=vertical;" parent="1" source="06UChs_v124DtHPbf5N7-85" target="06UChs_v124DtHPbf5N7-69" edge="1">
          <mxGeometry relative="1" as="geometry" />
        </mxCell>
        <mxCell id="06UChs_v124DtHPbf5N7-85" value="" style="rounded=0;whiteSpace=wrap;html=1;gradientColor=none;fillStyle=solid;fillColor=#000000;rotation=90;" parent="1" vertex="1">
          <mxGeometry x="205" y="1655" width="80" height="20" as="geometry" />
        </mxCell>
        <mxCell id="06UChs_v124DtHPbf5N7-86" value="Кількість втрачених покупців" style="text;html=1;strokeColor=none;fillColor=none;align=center;verticalAlign=middle;whiteSpace=wrap;rounded=0;" parent="1" vertex="1">
          <mxGeometry x="47.5" y="1610" width="115" height="30" as="geometry" />
        </mxCell>
        <mxCell id="06UChs_v124DtHPbf5N7-87" value="Перехід в інший магазин" style="text;html=1;strokeColor=none;fillColor=none;align=center;verticalAlign=middle;whiteSpace=wrap;rounded=0;" parent="1" vertex="1">
          <mxGeometry x="200" y="1710" width="100" height="30" as="geometry" />
        </mxCell>
        <mxCell id="06UChs_v124DtHPbf5N7-88" value="0.8" style="text;html=1;strokeColor=none;fillColor=none;align=center;verticalAlign=middle;whiteSpace=wrap;rounded=0;" parent="1" vertex="1">
          <mxGeometry x="285" y="1640" width="60" height="20" as="geometry" />
        </mxCell>
        <mxCell id="06UChs_v124DtHPbf5N7-89" style="edgeStyle=orthogonalEdgeStyle;rounded=0;orthogonalLoop=1;jettySize=auto;html=1;entryX=0;entryY=0.5;entryDx=0;entryDy=0;elbow=vertical;" parent="1" source="06UChs_v124DtHPbf5N7-91" target="06UChs_v124DtHPbf5N7-98" edge="1">
          <mxGeometry relative="1" as="geometry" />
        </mxCell>
        <mxCell id="06UChs_v124DtHPbf5N7-90" style="edgeStyle=orthogonalEdgeStyle;rounded=0;orthogonalLoop=1;jettySize=auto;html=1;entryX=0;entryY=0.5;entryDx=0;entryDy=0;elbow=vertical;" parent="1" source="06UChs_v124DtHPbf5N7-91" target="06UChs_v124DtHPbf5N7-101" edge="1">
          <mxGeometry relative="1" as="geometry">
            <Array as="points">
              <mxPoint x="560" y="1665" />
              <mxPoint x="560" y="1600" />
            </Array>
          </mxGeometry>
        </mxCell>
        <mxCell id="06UChs_v124DtHPbf5N7-91" value="" style="rounded=0;whiteSpace=wrap;html=1;gradientColor=none;fillStyle=solid;fillColor=#000000;rotation=90;" parent="1" vertex="1">
          <mxGeometry x="450" y="1660" width="80" height="10" as="geometry" />
        </mxCell>
        <mxCell id="06UChs_v124DtHPbf5N7-92" value="0.2" style="text;html=1;strokeColor=none;fillColor=none;align=center;verticalAlign=middle;whiteSpace=wrap;rounded=0;" parent="1" vertex="1">
          <mxGeometry x="360" y="1640" width="60" height="20" as="geometry" />
        </mxCell>
        <mxCell id="06UChs_v124DtHPbf5N7-93" value="Покупець в магазині" style="text;html=1;strokeColor=none;fillColor=none;align=center;verticalAlign=middle;whiteSpace=wrap;rounded=0;" parent="1" vertex="1">
          <mxGeometry x="360" y="1560" width="60" height="30" as="geometry" />
        </mxCell>
        <mxCell id="06UChs_v124DtHPbf5N7-94" style="edgeStyle=orthogonalEdgeStyle;rounded=0;orthogonalLoop=1;jettySize=auto;html=1;entryX=0;entryY=0.5;entryDx=0;entryDy=0;elbow=vertical;" parent="1" source="06UChs_v124DtHPbf5N7-96" target="06UChs_v124DtHPbf5N7-99" edge="1">
          <mxGeometry relative="1" as="geometry" />
        </mxCell>
        <mxCell id="06UChs_v124DtHPbf5N7-95" style="edgeStyle=orthogonalEdgeStyle;rounded=0;orthogonalLoop=1;jettySize=auto;html=1;entryX=0;entryY=0.5;entryDx=0;entryDy=0;elbow=vertical;" parent="1" source="06UChs_v124DtHPbf5N7-96" target="06UChs_v124DtHPbf5N7-101" edge="1">
          <mxGeometry relative="1" as="geometry">
            <Array as="points">
              <mxPoint x="560" y="1535" />
              <mxPoint x="560" y="1600" />
            </Array>
          </mxGeometry>
        </mxCell>
        <mxCell id="06UChs_v124DtHPbf5N7-96" value="" style="rounded=0;whiteSpace=wrap;html=1;gradientColor=none;fillStyle=solid;fillColor=#000000;rotation=-90;" parent="1" vertex="1">
          <mxGeometry x="440" y="1525" width="80" height="20" as="geometry" />
        </mxCell>
        <mxCell id="06UChs_v124DtHPbf5N7-97" style="edgeStyle=orthogonalEdgeStyle;rounded=0;orthogonalLoop=1;jettySize=auto;html=1;entryX=0.5;entryY=0;entryDx=0;entryDy=0;elbow=vertical;curved=1;" parent="1" source="06UChs_v124DtHPbf5N7-98" target="06UChs_v124DtHPbf5N7-71" edge="1">
          <mxGeometry relative="1" as="geometry">
            <Array as="points">
              <mxPoint x="660" y="1760" />
              <mxPoint x="40" y="1760" />
              <mxPoint x="40" y="1400" />
            </Array>
          </mxGeometry>
        </mxCell>
        <mxCell id="06UChs_v124DtHPbf5N7-98" value="" style="ellipse;whiteSpace=wrap;html=1;aspect=fixed;" parent="1" vertex="1">
          <mxGeometry x="645" y="1650" width="30" height="30" as="geometry" />
        </mxCell>
        <mxCell id="06UChs_v124DtHPbf5N7-99" value="" style="ellipse;whiteSpace=wrap;html=1;aspect=fixed;" parent="1" vertex="1">
          <mxGeometry x="645" y="1520" width="30" height="30" as="geometry" />
        </mxCell>
        <mxCell id="06UChs_v124DtHPbf5N7-100" style="edgeStyle=orthogonalEdgeStyle;rounded=0;orthogonalLoop=1;jettySize=auto;html=1;entryX=0.25;entryY=1;entryDx=0;entryDy=0;elbow=vertical;" parent="1" edge="1">
          <mxGeometry relative="1" as="geometry">
            <mxPoint x="815" y="1600" as="sourcePoint" />
            <mxPoint x="815" y="1375" as="targetPoint" />
            <Array as="points">
              <mxPoint x="835" y="1600" />
              <mxPoint x="835" y="1375" />
            </Array>
          </mxGeometry>
        </mxCell>
        <mxCell id="06UChs_v124DtHPbf5N7-101" value="" style="ellipse;whiteSpace=wrap;html=1;aspect=fixed;" parent="1" vertex="1">
          <mxGeometry x="785" y="1585" width="30" height="30" as="geometry" />
        </mxCell>
        <mxCell id="06UChs_v124DtHPbf5N7-102" value="Йде в чергу на отримання" style="text;html=1;strokeColor=none;fillColor=none;align=center;verticalAlign=middle;whiteSpace=wrap;rounded=0;" parent="1" vertex="1">
          <mxGeometry x="440" y="1710" width="100" height="30" as="geometry" />
        </mxCell>
        <mxCell id="06UChs_v124DtHPbf5N7-103" value="Черга на майбутнє&lt;br&gt;" style="text;html=1;strokeColor=none;fillColor=none;align=center;verticalAlign=middle;whiteSpace=wrap;rounded=0;" parent="1" vertex="1">
          <mxGeometry x="610" y="1690" width="100" height="30" as="geometry" />
        </mxCell>
        <mxCell id="06UChs_v124DtHPbf5N7-104" value="Куплені&lt;br&gt;холодильники" style="text;html=1;strokeColor=none;fillColor=none;align=center;verticalAlign=middle;whiteSpace=wrap;rounded=0;" parent="1" vertex="1">
          <mxGeometry x="610" y="1480" width="100" height="30" as="geometry" />
        </mxCell>
        <mxCell id="06UChs_v124DtHPbf5N7-105" value="Кількість, що треба замовить" style="text;html=1;strokeColor=none;fillColor=none;align=center;verticalAlign=middle;whiteSpace=wrap;rounded=0;" parent="1" vertex="1">
          <mxGeometry x="750" y="1620" width="100" height="30" as="geometry" />
        </mxCell>
        <mxCell id="06UChs_v124DtHPbf5N7-106" style="edgeStyle=orthogonalEdgeStyle;rounded=0;orthogonalLoop=1;jettySize=auto;html=1;entryX=1;entryY=0.5;entryDx=0;entryDy=0;elbow=vertical;" parent="1" source="06UChs_v124DtHPbf5N7-107" target="06UChs_v124DtHPbf5N7-114" edge="1">
          <mxGeometry relative="1" as="geometry">
            <Array as="points">
              <mxPoint x="683" y="1355" />
              <mxPoint x="683" y="1400" />
            </Array>
          </mxGeometry>
        </mxCell>
        <mxCell id="06UChs_v124DtHPbf5N7-107" value="" style="rounded=0;whiteSpace=wrap;html=1;gradientColor=none;fillStyle=solid;fillColor=#000000;rotation=-90;" parent="1" vertex="1">
          <mxGeometry x="760" y="1340" width="80" height="30" as="geometry" />
        </mxCell>
        <mxCell id="06UChs_v124DtHPbf5N7-108" value="Погрузка товарів" style="text;html=1;strokeColor=none;fillColor=none;align=center;verticalAlign=middle;whiteSpace=wrap;rounded=0;" parent="1" vertex="1">
          <mxGeometry x="750" y="1280" width="100" height="30" as="geometry" />
        </mxCell>
        <mxCell id="06UChs_v124DtHPbf5N7-109" value="Продаж холодильника" style="text;html=1;strokeColor=none;fillColor=none;align=center;verticalAlign=middle;whiteSpace=wrap;rounded=0;" parent="1" vertex="1">
          <mxGeometry x="460" y="1460" width="100" height="30" as="geometry" />
        </mxCell>
        <mxCell id="06UChs_v124DtHPbf5N7-110" style="edgeStyle=orthogonalEdgeStyle;rounded=0;orthogonalLoop=1;jettySize=auto;html=1;entryX=0.75;entryY=0;entryDx=0;entryDy=0;elbow=vertical;curved=1;" parent="1" source="06UChs_v124DtHPbf5N7-114" target="06UChs_v124DtHPbf5N7-96" edge="1">
          <mxGeometry relative="1" as="geometry" />
        </mxCell>
        <mxCell id="06UChs_v124DtHPbf5N7-111" style="edgeStyle=orthogonalEdgeStyle;rounded=0;orthogonalLoop=1;jettySize=auto;html=1;entryX=0.75;entryY=0;entryDx=0;entryDy=0;elbow=vertical;dashed=1;curved=1;" parent="1" source="06UChs_v124DtHPbf5N7-114" target="06UChs_v124DtHPbf5N7-71" edge="1">
          <mxGeometry relative="1" as="geometry">
            <Array as="points">
              <mxPoint x="557" y="1340" />
              <mxPoint x="270" y="1340" />
              <mxPoint x="270" y="1380" />
            </Array>
          </mxGeometry>
        </mxCell>
        <mxCell id="06UChs_v124DtHPbf5N7-112" style="edgeStyle=orthogonalEdgeStyle;rounded=0;orthogonalLoop=1;jettySize=auto;html=1;entryX=0.5;entryY=0;entryDx=0;entryDy=0;elbow=vertical;dashed=1;" parent="1" source="06UChs_v124DtHPbf5N7-114" target="06UChs_v124DtHPbf5N7-138" edge="1">
          <mxGeometry relative="1" as="geometry">
            <Array as="points">
              <mxPoint x="558" y="1150" />
            </Array>
          </mxGeometry>
        </mxCell>
        <mxCell id="06UChs_v124DtHPbf5N7-113" value="&lt;font style=&quot;font-size: 24px;&quot;&gt;/&lt;/font&gt;" style="edgeLabel;html=1;align=center;verticalAlign=middle;resizable=0;points=[];" parent="06UChs_v124DtHPbf5N7-112" vertex="1" connectable="0">
          <mxGeometry x="0.2661" y="1" relative="1" as="geometry">
            <mxPoint as="offset" />
          </mxGeometry>
        </mxCell>
        <mxCell id="06UChs_v124DtHPbf5N7-114" value="72" style="ellipse;whiteSpace=wrap;html=1;aspect=fixed;" parent="1" vertex="1">
          <mxGeometry x="535" y="1377.5" width="45" height="45" as="geometry" />
        </mxCell>
        <mxCell id="06UChs_v124DtHPbf5N7-115" value="Запас" style="text;html=1;strokeColor=none;fillColor=none;align=center;verticalAlign=middle;whiteSpace=wrap;rounded=0;" parent="1" vertex="1">
          <mxGeometry x="460" y="1370" width="100" height="30" as="geometry" />
        </mxCell>
        <mxCell id="06UChs_v124DtHPbf5N7-116" style="edgeStyle=orthogonalEdgeStyle;rounded=0;orthogonalLoop=1;jettySize=auto;html=1;entryX=0.5;entryY=1;entryDx=0;entryDy=0;elbow=vertical;dashed=1;" parent="1" source="06UChs_v124DtHPbf5N7-118" target="06UChs_v124DtHPbf5N7-107" edge="1">
          <mxGeometry relative="1" as="geometry" />
        </mxCell>
        <mxCell id="06UChs_v124DtHPbf5N7-117" style="edgeStyle=orthogonalEdgeStyle;rounded=0;orthogonalLoop=1;jettySize=auto;html=1;entryX=0.5;entryY=0;entryDx=0;entryDy=0;elbow=vertical;curved=1;exitX=0.5;exitY=1;exitDx=0;exitDy=0;" parent="1" source="06UChs_v124DtHPbf5N7-118" target="06UChs_v124DtHPbf5N7-121" edge="1">
          <mxGeometry relative="1" as="geometry" />
        </mxCell>
        <mxCell id="06UChs_v124DtHPbf5N7-118" value="" style="ellipse;whiteSpace=wrap;html=1;aspect=fixed;" parent="1" vertex="1">
          <mxGeometry x="915" y="1340" width="30" height="30" as="geometry" />
        </mxCell>
        <mxCell id="06UChs_v124DtHPbf5N7-119" value="Товари доставлено" style="text;html=1;strokeColor=none;fillColor=none;align=center;verticalAlign=middle;whiteSpace=wrap;rounded=0;" parent="1" vertex="1">
          <mxGeometry x="880" y="1300" width="100" height="30" as="geometry" />
        </mxCell>
        <mxCell id="06UChs_v124DtHPbf5N7-120" style="edgeStyle=orthogonalEdgeStyle;rounded=0;orthogonalLoop=1;jettySize=auto;html=1;entryX=0;entryY=0.5;entryDx=0;entryDy=0;elbow=vertical;" parent="1" source="06UChs_v124DtHPbf5N7-121" target="06UChs_v124DtHPbf5N7-126" edge="1">
          <mxGeometry relative="1" as="geometry" />
        </mxCell>
        <mxCell id="06UChs_v124DtHPbf5N7-121" value="" style="rounded=0;whiteSpace=wrap;html=1;gradientColor=none;fillStyle=solid;fillColor=#000000;rotation=-90;" parent="1" vertex="1">
          <mxGeometry x="970" y="1500" width="80" height="10" as="geometry" />
        </mxCell>
        <mxCell id="06UChs_v124DtHPbf5N7-122" style="edgeStyle=orthogonalEdgeStyle;rounded=0;orthogonalLoop=1;jettySize=auto;html=1;entryX=1;entryY=0.5;entryDx=0;entryDy=0;elbow=vertical;" parent="1" source="06UChs_v124DtHPbf5N7-123" target="06UChs_v124DtHPbf5N7-118" edge="1">
          <mxGeometry relative="1" as="geometry" />
        </mxCell>
        <mxCell id="06UChs_v124DtHPbf5N7-123" value="" style="rounded=0;whiteSpace=wrap;html=1;gradientColor=none;fillStyle=solid;fillColor=#000000;rotation=90;" parent="1" vertex="1">
          <mxGeometry x="980" y="1350" width="80" height="10" as="geometry" />
        </mxCell>
        <mxCell id="06UChs_v124DtHPbf5N7-124" value="Доставка товарів" style="text;html=1;strokeColor=none;fillColor=none;align=center;verticalAlign=middle;whiteSpace=wrap;rounded=0;" parent="1" vertex="1">
          <mxGeometry x="970" y="1280" width="100" height="30" as="geometry" />
        </mxCell>
        <mxCell id="06UChs_v124DtHPbf5N7-125" value="t = 3" style="text;html=1;strokeColor=none;fillColor=none;align=center;verticalAlign=middle;whiteSpace=wrap;rounded=0;" parent="1" vertex="1">
          <mxGeometry x="990" y="1400" width="60" height="20" as="geometry" />
        </mxCell>
        <mxCell id="06UChs_v124DtHPbf5N7-126" value="" style="ellipse;whiteSpace=wrap;html=1;aspect=fixed;" parent="1" vertex="1">
          <mxGeometry x="1095" y="1490" width="30" height="30" as="geometry" />
        </mxCell>
        <mxCell id="06UChs_v124DtHPbf5N7-127" style="edgeStyle=orthogonalEdgeStyle;rounded=0;orthogonalLoop=1;jettySize=auto;html=1;entryX=0.5;entryY=0;entryDx=0;entryDy=0;elbow=vertical;" parent="1" source="06UChs_v124DtHPbf5N7-129" target="06UChs_v124DtHPbf5N7-123" edge="1">
          <mxGeometry relative="1" as="geometry" />
        </mxCell>
        <mxCell id="06UChs_v124DtHPbf5N7-128" style="edgeStyle=orthogonalEdgeStyle;rounded=0;orthogonalLoop=1;jettySize=auto;html=1;entryX=0.25;entryY=0;entryDx=0;entryDy=0;elbow=vertical;curved=1;exitX=0.5;exitY=0;exitDx=0;exitDy=0;" parent="1" source="06UChs_v124DtHPbf5N7-129" target="06UChs_v124DtHPbf5N7-138" edge="1">
          <mxGeometry relative="1" as="geometry" />
        </mxCell>
        <mxCell id="06UChs_v124DtHPbf5N7-129" value="" style="ellipse;whiteSpace=wrap;html=1;aspect=fixed;" parent="1" vertex="1">
          <mxGeometry x="1095" y="1340" width="30" height="30" as="geometry" />
        </mxCell>
        <mxCell id="06UChs_v124DtHPbf5N7-130" style="edgeStyle=orthogonalEdgeStyle;rounded=0;orthogonalLoop=1;jettySize=auto;html=1;entryX=1;entryY=0.5;entryDx=0;entryDy=0;elbow=vertical;" parent="1" source="06UChs_v124DtHPbf5N7-132" target="06UChs_v124DtHPbf5N7-129" edge="1">
          <mxGeometry relative="1" as="geometry" />
        </mxCell>
        <mxCell id="06UChs_v124DtHPbf5N7-131" style="edgeStyle=orthogonalEdgeStyle;rounded=0;orthogonalLoop=1;jettySize=auto;html=1;entryX=0;entryY=0.5;entryDx=0;entryDy=0;elbow=vertical;" parent="1" edge="1">
          <mxGeometry relative="1" as="geometry">
            <mxPoint x="1209.9999999999995" y="1359.46" as="sourcePoint" />
            <mxPoint x="1255.0000000000355" y="1359.46" as="targetPoint" />
          </mxGeometry>
        </mxCell>
        <mxCell id="06UChs_v124DtHPbf5N7-132" value="" style="rounded=0;whiteSpace=wrap;html=1;gradientColor=none;fillStyle=solid;fillColor=#000000;rotation=90;" parent="1" vertex="1">
          <mxGeometry x="1165" y="1350" width="80" height="10" as="geometry" />
        </mxCell>
        <mxCell id="06UChs_v124DtHPbf5N7-133" value="t = 4" style="text;html=1;strokeColor=none;fillColor=none;align=center;verticalAlign=middle;whiteSpace=wrap;rounded=0;" parent="1" vertex="1">
          <mxGeometry x="1175" y="1400" width="60" height="20" as="geometry" />
        </mxCell>
        <mxCell id="06UChs_v124DtHPbf5N7-134" value="Перевірка запасів" style="text;html=1;strokeColor=none;fillColor=none;align=center;verticalAlign=middle;whiteSpace=wrap;rounded=0;" parent="1" vertex="1">
          <mxGeometry x="1155" y="1280" width="100" height="30" as="geometry" />
        </mxCell>
        <mxCell id="06UChs_v124DtHPbf5N7-135" style="edgeStyle=orthogonalEdgeStyle;rounded=0;orthogonalLoop=1;jettySize=auto;html=1;entryX=0.5;entryY=0;entryDx=0;entryDy=0;elbow=vertical;" parent="1" edge="1">
          <mxGeometry relative="1" as="geometry">
            <mxPoint x="1254.9999999999995" y="1350" as="sourcePoint" />
            <mxPoint x="1209.9999999999995" y="1350" as="targetPoint" />
          </mxGeometry>
        </mxCell>
        <mxCell id="06UChs_v124DtHPbf5N7-136" value="1" style="ellipse;whiteSpace=wrap;html=1;aspect=fixed;" parent="1" vertex="1">
          <mxGeometry x="1255" y="1340" width="30" height="30" as="geometry" />
        </mxCell>
        <mxCell id="06UChs_v124DtHPbf5N7-137" style="edgeStyle=orthogonalEdgeStyle;rounded=0;orthogonalLoop=1;jettySize=auto;html=1;entryX=0;entryY=0.5;entryDx=0;entryDy=0;elbow=vertical;" parent="1" source="06UChs_v124DtHPbf5N7-138" target="06UChs_v124DtHPbf5N7-139" edge="1">
          <mxGeometry relative="1" as="geometry" />
        </mxCell>
        <mxCell id="06UChs_v124DtHPbf5N7-138" value="" style="rounded=0;whiteSpace=wrap;html=1;gradientColor=none;fillStyle=solid;fillColor=#000000;rotation=-90;" parent="1" vertex="1">
          <mxGeometry x="1105" y="1140" width="80" height="20" as="geometry" />
        </mxCell>
        <mxCell id="06UChs_v124DtHPbf5N7-139" value="" style="ellipse;whiteSpace=wrap;html=1;aspect=fixed;" parent="1" vertex="1">
          <mxGeometry x="1255" y="1135" width="30" height="30" as="geometry" />
        </mxCell>
        <mxCell id="06UChs_v124DtHPbf5N7-140" value="Переглядання запасів не треба" style="text;html=1;strokeColor=none;fillColor=none;align=center;verticalAlign=middle;whiteSpace=wrap;rounded=0;" parent="1" vertex="1">
          <mxGeometry x="1095" y="1075" width="100" height="30" as="geometry" />
        </mxCell>
        <mxCell id="06UChs_v124DtHPbf5N7-141" value="19" style="text;html=1;strokeColor=none;fillColor=none;align=center;verticalAlign=middle;whiteSpace=wrap;rounded=0;" parent="1" vertex="1">
          <mxGeometry x="793" y="1119" width="100" height="30" as="geometry" />
        </mxCell>
        <mxCell id="06UChs_v124DtHPbf5N7-142" value="кожні 4 тижня" style="text;html=1;strokeColor=none;fillColor=none;align=center;verticalAlign=middle;whiteSpace=wrap;rounded=0;" parent="1" vertex="1">
          <mxGeometry x="1175" y="1427.5" width="60" height="20" as="geometry" />
        </mxCell>
        <mxCell id="06UChs_v124DtHPbf5N7-191" style="edgeStyle=orthogonalEdgeStyle;rounded=0;orthogonalLoop=1;jettySize=auto;html=1;entryX=0.75;entryY=0;entryDx=0;entryDy=0;elbow=vertical;" parent="1" edge="1">
          <mxGeometry relative="1" as="geometry">
            <mxPoint x="420" y="2080" as="targetPoint" />
          </mxGeometry>
        </mxCell>
        <mxCell id="06UChs_v124DtHPbf5N7-333" value="" style="rounded=0;whiteSpace=wrap;html=1;gradientColor=none;fillStyle=solid;fillColor=#000000;rotation=90;" parent="1" vertex="1">
          <mxGeometry x="64" y="2314.5" width="80" height="10" as="geometry" />
        </mxCell>
        <mxCell id="06UChs_v124DtHPbf5N7-335" value="1" style="ellipse;whiteSpace=wrap;html=1;aspect=fixed;" parent="1" vertex="1">
          <mxGeometry x="40" y="2304.5" width="30" height="30" as="geometry" />
        </mxCell>
        <mxCell id="06UChs_v124DtHPbf5N7-336" value="&lt;font style=&quot;font-size: 10px;&quot;&gt;t = exp(0.2)&lt;/font&gt;" style="text;html=1;strokeColor=none;fillColor=none;align=center;verticalAlign=middle;whiteSpace=wrap;rounded=0;" parent="1" vertex="1">
          <mxGeometry x="75" y="2353.5" width="60" height="20" as="geometry" />
        </mxCell>
        <mxCell id="06UChs_v124DtHPbf5N7-337" value="&lt;font style=&quot;font-size: 10px;&quot;&gt;Надходження покупців&lt;/font&gt;" style="text;html=1;strokeColor=none;fillColor=none;align=center;verticalAlign=middle;whiteSpace=wrap;rounded=0;" parent="1" vertex="1">
          <mxGeometry x="74" y="2247.5" width="60" height="30" as="geometry" />
        </mxCell>
        <mxCell id="06UChs_v124DtHPbf5N7-338" style="rounded=0;orthogonalLoop=1;jettySize=auto;html=1;exitX=0.5;exitY=1;exitDx=0;exitDy=0;entryX=0.5;entryY=1;entryDx=0;entryDy=0;edgeStyle=orthogonalEdgeStyle;curved=1;" parent="1" source="06UChs_v124DtHPbf5N7-343" target="06UChs_v124DtHPbf5N7-348" edge="1">
          <mxGeometry relative="1" as="geometry" />
        </mxCell>
        <mxCell id="06UChs_v124DtHPbf5N7-389" value="0.8" style="edgeLabel;html=1;align=center;verticalAlign=middle;resizable=0;points=[];" parent="06UChs_v124DtHPbf5N7-338" vertex="1" connectable="0">
          <mxGeometry x="0.2695" y="16" relative="1" as="geometry">
            <mxPoint as="offset" />
          </mxGeometry>
        </mxCell>
        <mxCell id="06UChs_v124DtHPbf5N7-340" style="edgeStyle=orthogonalEdgeStyle;rounded=0;orthogonalLoop=1;jettySize=auto;html=1;exitX=1;exitY=0.5;exitDx=0;exitDy=0;entryX=0.5;entryY=1;entryDx=0;entryDy=0;curved=1;" parent="1" source="06UChs_v124DtHPbf5N7-343" target="06UChs_v124DtHPbf5N7-346" edge="1">
          <mxGeometry relative="1" as="geometry" />
        </mxCell>
        <mxCell id="06UChs_v124DtHPbf5N7-341" style="edgeStyle=orthogonalEdgeStyle;rounded=0;orthogonalLoop=1;jettySize=auto;html=1;exitX=0.5;exitY=0;exitDx=0;exitDy=0;entryX=0.5;entryY=1;entryDx=0;entryDy=0;curved=1;" parent="1" source="06UChs_v124DtHPbf5N7-343" target="06UChs_v124DtHPbf5N7-351" edge="1">
          <mxGeometry relative="1" as="geometry" />
        </mxCell>
        <mxCell id="06UChs_v124DtHPbf5N7-342" value="0.2" style="edgeLabel;html=1;align=center;verticalAlign=middle;resizable=0;points=[];" parent="06UChs_v124DtHPbf5N7-341" vertex="1" connectable="0">
          <mxGeometry x="-0.544" y="-2" relative="1" as="geometry">
            <mxPoint as="offset" />
          </mxGeometry>
        </mxCell>
        <mxCell id="06UChs_v124DtHPbf5N7-344" style="rounded=0;orthogonalLoop=1;jettySize=auto;html=1;exitX=0.5;exitY=0;exitDx=0;exitDy=0;entryX=0.318;entryY=0.993;entryDx=0;entryDy=0;entryPerimeter=0;" parent="1" source="06UChs_v124DtHPbf5N7-346" target="06UChs_v124DtHPbf5N7-354" edge="1">
          <mxGeometry relative="1" as="geometry" />
        </mxCell>
        <mxCell id="06UChs_v124DtHPbf5N7-345" style="edgeStyle=orthogonalEdgeStyle;rounded=0;orthogonalLoop=1;jettySize=auto;html=1;exitX=0.5;exitY=0;exitDx=0;exitDy=0;entryX=0;entryY=0.5;entryDx=0;entryDy=0;" parent="1" source="06UChs_v124DtHPbf5N7-346" target="06UChs_v124DtHPbf5N7-359" edge="1">
          <mxGeometry relative="1" as="geometry" />
        </mxCell>
        <mxCell id="06UChs_v124DtHPbf5N7-346" value="" style="rounded=0;whiteSpace=wrap;html=1;gradientColor=none;fillStyle=solid;fillColor=#000000;rotation=90;" parent="1" vertex="1">
          <mxGeometry x="191.25" y="2308.25" width="80" height="22.5" as="geometry" />
        </mxCell>
        <mxCell id="06UChs_v124DtHPbf5N7-347" style="edgeStyle=orthogonalEdgeStyle;rounded=0;orthogonalLoop=1;jettySize=auto;html=1;exitX=0.5;exitY=0;exitDx=0;exitDy=0;entryX=0;entryY=0.5;entryDx=0;entryDy=0;" parent="1" source="06UChs_v124DtHPbf5N7-348" target="06UChs_v124DtHPbf5N7-355" edge="1">
          <mxGeometry relative="1" as="geometry" />
        </mxCell>
        <mxCell id="06UChs_v124DtHPbf5N7-348" value="" style="rounded=0;whiteSpace=wrap;html=1;gradientColor=none;fillStyle=solid;fillColor=#000000;rotation=90;" parent="1" vertex="1">
          <mxGeometry x="191" y="2405.5" width="80" height="10" as="geometry" />
        </mxCell>
        <mxCell id="06UChs_v124DtHPbf5N7-349" style="rounded=0;orthogonalLoop=1;jettySize=auto;html=1;entryX=0;entryY=0.5;entryDx=0;entryDy=0;exitX=0.5;exitY=0;exitDx=0;exitDy=0;" parent="1" source="06UChs_v124DtHPbf5N7-351" target="06UChs_v124DtHPbf5N7-353" edge="1">
          <mxGeometry relative="1" as="geometry">
            <mxPoint x="335" y="2040" as="sourcePoint" />
          </mxGeometry>
        </mxCell>
        <mxCell id="06UChs_v124DtHPbf5N7-388" style="edgeStyle=orthogonalEdgeStyle;rounded=0;orthogonalLoop=1;jettySize=auto;html=1;exitX=0.5;exitY=0;exitDx=0;exitDy=0;entryX=0.5;entryY=0;entryDx=0;entryDy=0;curved=1;" parent="1" source="06UChs_v124DtHPbf5N7-351" target="06UChs_v124DtHPbf5N7-359" edge="1">
          <mxGeometry relative="1" as="geometry">
            <Array as="points">
              <mxPoint x="236" y="1920" />
              <mxPoint x="650" y="1920" />
            </Array>
          </mxGeometry>
        </mxCell>
        <mxCell id="06UChs_v124DtHPbf5N7-351" value="" style="rounded=0;whiteSpace=wrap;html=1;gradientColor=none;fillStyle=solid;fillColor=#000000;rotation=90;" parent="1" vertex="1">
          <mxGeometry x="191" y="2044.75" width="80" height="10" as="geometry" />
        </mxCell>
        <mxCell id="06UChs_v124DtHPbf5N7-352" style="edgeStyle=orthogonalEdgeStyle;rounded=0;orthogonalLoop=1;jettySize=auto;html=1;exitX=1;exitY=0.5;exitDx=0;exitDy=0;entryX=0.5;entryY=1;entryDx=0;entryDy=0;" parent="1" source="06UChs_v124DtHPbf5N7-353" target="06UChs_v124DtHPbf5N7-363" edge="1">
          <mxGeometry relative="1" as="geometry" />
        </mxCell>
        <mxCell id="06UChs_v124DtHPbf5N7-353" value="" style="ellipse;whiteSpace=wrap;html=1;aspect=fixed;" parent="1" vertex="1">
          <mxGeometry x="285.5" y="2034.75" width="30" height="30" as="geometry" />
        </mxCell>
        <mxCell id="06UChs_v124DtHPbf5N7-354" value="" style="ellipse;whiteSpace=wrap;html=1;aspect=fixed;" parent="1" vertex="1">
          <mxGeometry x="269.5" y="2150" width="30" height="30" as="geometry" />
        </mxCell>
        <mxCell id="06UChs_v124DtHPbf5N7-355" value="" style="ellipse;whiteSpace=wrap;html=1;aspect=fixed;" parent="1" vertex="1">
          <mxGeometry x="269.5" y="2395.5" width="30" height="30" as="geometry" />
        </mxCell>
        <mxCell id="06UChs_v124DtHPbf5N7-356" value="&lt;font style=&quot;font-size: 10px;&quot;&gt;Відмови&lt;/font&gt;" style="text;html=1;strokeColor=none;fillColor=none;align=center;verticalAlign=middle;whiteSpace=wrap;rounded=0;" parent="1" vertex="1">
          <mxGeometry x="254" y="2373.5" width="60" height="30" as="geometry" />
        </mxCell>
        <mxCell id="06UChs_v124DtHPbf5N7-357" value="&lt;font style=&quot;font-size: 10px;&quot;&gt;Черга на майбутнє&lt;/font&gt;" style="text;html=1;strokeColor=none;fillColor=none;align=center;verticalAlign=middle;whiteSpace=wrap;rounded=0;" parent="1" vertex="1">
          <mxGeometry x="274" y="2004.75" width="53" height="30" as="geometry" />
        </mxCell>
        <mxCell id="06UChs_v124DtHPbf5N7-358" style="rounded=0;orthogonalLoop=1;jettySize=auto;html=1;exitX=0;exitY=0;exitDx=0;exitDy=0;entryX=0.75;entryY=0;entryDx=0;entryDy=0;" parent="1" source="06UChs_v124DtHPbf5N7-359" target="06UChs_v124DtHPbf5N7-380" edge="1">
          <mxGeometry relative="1" as="geometry" />
        </mxCell>
        <mxCell id="06UChs_v124DtHPbf5N7-359" value="" style="ellipse;whiteSpace=wrap;html=1;aspect=fixed;" parent="1" vertex="1">
          <mxGeometry x="635" y="2304.5" width="30" height="30" as="geometry" />
        </mxCell>
        <mxCell id="06UChs_v124DtHPbf5N7-360" value="&lt;font style=&quot;font-size: 10px;&quot;&gt;Треба замовити&lt;/font&gt;" style="text;html=1;strokeColor=none;fillColor=none;align=center;verticalAlign=middle;whiteSpace=wrap;rounded=0;" parent="1" vertex="1">
          <mxGeometry x="610" y="2324.5" width="85" height="30" as="geometry" />
        </mxCell>
        <mxCell id="06UChs_v124DtHPbf5N7-361" value="&lt;font style=&quot;font-size: 10px;&quot;&gt;Продажі&lt;/font&gt;" style="text;html=1;strokeColor=none;fillColor=none;align=center;verticalAlign=middle;whiteSpace=wrap;rounded=0;rotation=0;" parent="1" vertex="1">
          <mxGeometry x="525" y="2294" width="60" height="30" as="geometry" />
        </mxCell>
        <mxCell id="06UChs_v124DtHPbf5N7-362" style="rounded=0;orthogonalLoop=1;jettySize=auto;html=1;exitX=0.75;exitY=1;exitDx=0;exitDy=0;entryX=0.727;entryY=0.069;entryDx=0;entryDy=0;entryPerimeter=0;" parent="1" source="06UChs_v124DtHPbf5N7-363" target="06UChs_v124DtHPbf5N7-354" edge="1">
          <mxGeometry relative="1" as="geometry" />
        </mxCell>
        <mxCell id="06UChs_v124DtHPbf5N7-363" value="" style="rounded=0;whiteSpace=wrap;html=1;gradientColor=none;fillStyle=solid;fillColor=#000000;rotation=90;" parent="1" vertex="1">
          <mxGeometry x="305.5" y="2044.75" width="80" height="10" as="geometry" />
        </mxCell>
        <mxCell id="06UChs_v124DtHPbf5N7-364" style="rounded=0;orthogonalLoop=1;jettySize=auto;html=1;exitX=0;exitY=1;exitDx=0;exitDy=0;entryX=0.5;entryY=0;entryDx=0;entryDy=0;" parent="1" source="06UChs_v124DtHPbf5N7-366" target="06UChs_v124DtHPbf5N7-346" edge="1">
          <mxGeometry relative="1" as="geometry" />
        </mxCell>
        <mxCell id="06UChs_v124DtHPbf5N7-365" style="rounded=0;orthogonalLoop=1;jettySize=auto;html=1;exitX=0;exitY=0.5;exitDx=0;exitDy=0;entryX=0.5;entryY=0;entryDx=0;entryDy=0;" parent="1" source="06UChs_v124DtHPbf5N7-366" target="06UChs_v124DtHPbf5N7-363" edge="1">
          <mxGeometry relative="1" as="geometry" />
        </mxCell>
        <mxCell id="06UChs_v124DtHPbf5N7-366" value="72" style="ellipse;whiteSpace=wrap;html=1;aspect=fixed;" parent="1" vertex="1">
          <mxGeometry x="400" y="2034.75" width="30" height="30" as="geometry" />
        </mxCell>
        <mxCell id="06UChs_v124DtHPbf5N7-367" value="&lt;div style=&quot;&quot;&gt;&lt;span style=&quot;font-size: 10px; background-color: initial;&quot;&gt;Холодосів&lt;/span&gt;&lt;/div&gt;&lt;font style=&quot;font-size: 10px;&quot;&gt;&lt;div style=&quot;&quot;&gt;&lt;span style=&quot;background-color: initial;&quot;&gt;на складі&lt;/span&gt;&lt;/div&gt;&lt;/font&gt;" style="text;html=1;strokeColor=none;fillColor=none;align=center;verticalAlign=middle;whiteSpace=wrap;rounded=0;" parent="1" vertex="1">
          <mxGeometry x="388.25" y="2004.75" width="53.5" height="30" as="geometry" />
        </mxCell>
        <mxCell id="06UChs_v124DtHPbf5N7-375" style="rounded=0;orthogonalLoop=1;jettySize=auto;html=1;exitX=0.5;exitY=0;exitDx=0;exitDy=0;entryX=0.75;entryY=1;entryDx=0;entryDy=0;strokeColor=default;dashed=1;edgeStyle=orthogonalEdgeStyle;curved=1;" parent="1" source="06UChs_v124DtHPbf5N7-376" target="06UChs_v124DtHPbf5N7-380" edge="1">
          <mxGeometry relative="1" as="geometry" />
        </mxCell>
        <mxCell id="06UChs_v124DtHPbf5N7-379" style="rounded=0;orthogonalLoop=1;jettySize=auto;html=1;exitX=0.5;exitY=1;exitDx=0;exitDy=0;entryX=1;entryY=0.5;entryDx=0;entryDy=0;" parent="1" source="06UChs_v124DtHPbf5N7-380" target="06UChs_v124DtHPbf5N7-366" edge="1">
          <mxGeometry relative="1" as="geometry" />
        </mxCell>
        <mxCell id="06UChs_v124DtHPbf5N7-380" value="" style="rounded=0;whiteSpace=wrap;html=1;gradientColor=none;fillStyle=solid;fillColor=#000000;rotation=90;" parent="1" vertex="1">
          <mxGeometry x="499.75" y="2039.5" width="80" height="19" as="geometry" />
        </mxCell>
        <mxCell id="06UChs_v124DtHPbf5N7-381" value="&lt;font style=&quot;font-size: 10px;&quot;&gt;t = 3&lt;/font&gt;" style="text;html=1;strokeColor=none;fillColor=none;align=center;verticalAlign=middle;whiteSpace=wrap;rounded=0;" parent="1" vertex="1">
          <mxGeometry x="511.75" y="2086" width="60" height="20" as="geometry" />
        </mxCell>
        <mxCell id="06UChs_v124DtHPbf5N7-382" value="&lt;font style=&quot;font-size: 10px;&quot;&gt;Замовити холодос&lt;/font&gt;" style="text;html=1;strokeColor=none;fillColor=none;align=center;verticalAlign=middle;whiteSpace=wrap;rounded=0;" parent="1" vertex="1">
          <mxGeometry x="499.25" y="1973" width="85" height="30" as="geometry" />
        </mxCell>
        <mxCell id="06UChs_v124DtHPbf5N7-383" value="" style="endArrow=classic;html=1;rounded=0;exitX=0.942;exitY=0.302;exitDx=0;exitDy=0;exitPerimeter=0;entryX=0.426;entryY=0.974;entryDx=0;entryDy=0;entryPerimeter=0;" parent="1" source="06UChs_v124DtHPbf5N7-335" target="06UChs_v124DtHPbf5N7-333" edge="1">
          <mxGeometry width="50" height="50" relative="1" as="geometry">
            <mxPoint x="105" y="2370" as="sourcePoint" />
            <mxPoint x="155" y="2320" as="targetPoint" />
          </mxGeometry>
        </mxCell>
        <mxCell id="06UChs_v124DtHPbf5N7-384" value="" style="endArrow=classic;html=1;rounded=0;entryX=0.948;entryY=0.591;entryDx=0;entryDy=0;entryPerimeter=0;exitX=0.529;exitY=0.974;exitDx=0;exitDy=0;exitPerimeter=0;" parent="1" source="06UChs_v124DtHPbf5N7-333" target="06UChs_v124DtHPbf5N7-335" edge="1">
          <mxGeometry width="50" height="50" relative="1" as="geometry">
            <mxPoint x="125" y="2322" as="sourcePoint" />
            <mxPoint x="135" y="2340" as="targetPoint" />
          </mxGeometry>
        </mxCell>
        <mxCell id="06UChs_v124DtHPbf5N7-385" value="" style="edgeStyle=orthogonalEdgeStyle;rounded=0;orthogonalLoop=1;jettySize=auto;html=1;entryX=0;entryY=0.5;entryDx=0;entryDy=0;elbow=vertical;" parent="1" source="06UChs_v124DtHPbf5N7-333" target="06UChs_v124DtHPbf5N7-343" edge="1">
          <mxGeometry relative="1" as="geometry">
            <mxPoint x="220" y="2319.5" as="targetPoint" />
            <mxPoint x="109" y="2319" as="sourcePoint" />
          </mxGeometry>
        </mxCell>
        <mxCell id="06UChs_v124DtHPbf5N7-343" value="" style="ellipse;whiteSpace=wrap;html=1;aspect=fixed;" parent="1" vertex="1">
          <mxGeometry x="139" y="2304.5" width="30" height="30" as="geometry" />
        </mxCell>
        <mxCell id="06UChs_v124DtHPbf5N7-386" value="" style="group" parent="1" vertex="1" connectable="0">
          <mxGeometry x="304" y="2137" width="212.5" height="182" as="geometry" />
        </mxCell>
        <mxCell id="06UChs_v124DtHPbf5N7-369" value="1" style="ellipse;whiteSpace=wrap;html=1;aspect=fixed;" parent="06UChs_v124DtHPbf5N7-386" vertex="1">
          <mxGeometry x="20.75" y="112.5" width="30" height="30" as="geometry" />
        </mxCell>
        <mxCell id="06UChs_v124DtHPbf5N7-370" value="&lt;font style=&quot;font-size: 10px;&quot;&gt;Перевірка запасів&lt;/font&gt;" style="text;html=1;strokeColor=none;fillColor=none;align=center;verticalAlign=middle;whiteSpace=wrap;rounded=0;" parent="06UChs_v124DtHPbf5N7-386" vertex="1">
          <mxGeometry y="82.5" width="60" height="30" as="geometry" />
        </mxCell>
        <mxCell id="06UChs_v124DtHPbf5N7-372" value="" style="rounded=0;whiteSpace=wrap;html=1;gradientColor=none;fillStyle=solid;fillColor=#000000;rotation=90;" parent="06UChs_v124DtHPbf5N7-386" vertex="1">
          <mxGeometry x="79.25" y="122.5" width="80" height="10" as="geometry" />
        </mxCell>
        <mxCell id="06UChs_v124DtHPbf5N7-368" style="edgeStyle=orthogonalEdgeStyle;rounded=0;orthogonalLoop=1;jettySize=auto;html=1;exitX=1;exitY=0.5;exitDx=0;exitDy=0;entryX=0.5;entryY=1;entryDx=0;entryDy=0;" parent="06UChs_v124DtHPbf5N7-386" source="06UChs_v124DtHPbf5N7-369" target="06UChs_v124DtHPbf5N7-372" edge="1">
          <mxGeometry relative="1" as="geometry" />
        </mxCell>
        <mxCell id="06UChs_v124DtHPbf5N7-373" value="&lt;font style=&quot;font-size: 10px;&quot;&gt;t = 4&lt;/font&gt;" style="text;html=1;strokeColor=none;fillColor=none;align=center;verticalAlign=middle;whiteSpace=wrap;rounded=0;" parent="06UChs_v124DtHPbf5N7-386" vertex="1">
          <mxGeometry x="89.25" y="162" width="60" height="20" as="geometry" />
        </mxCell>
        <mxCell id="06UChs_v124DtHPbf5N7-376" value="" style="ellipse;whiteSpace=wrap;html=1;aspect=fixed;" parent="06UChs_v124DtHPbf5N7-386" vertex="1">
          <mxGeometry x="182.5" y="65" width="30" height="30" as="geometry" />
        </mxCell>
        <mxCell id="06UChs_v124DtHPbf5N7-371" style="rounded=0;orthogonalLoop=1;jettySize=auto;html=1;exitX=0.5;exitY=0;exitDx=0;exitDy=0;entryX=0;entryY=1;entryDx=0;entryDy=0;" parent="06UChs_v124DtHPbf5N7-386" source="06UChs_v124DtHPbf5N7-372" target="06UChs_v124DtHPbf5N7-376" edge="1">
          <mxGeometry relative="1" as="geometry" />
        </mxCell>
        <mxCell id="06UChs_v124DtHPbf5N7-377" style="rounded=0;orthogonalLoop=1;jettySize=auto;html=1;exitX=0.5;exitY=1;exitDx=0;exitDy=0;entryX=1;entryY=0;entryDx=0;entryDy=0;" parent="06UChs_v124DtHPbf5N7-386" source="06UChs_v124DtHPbf5N7-378" target="06UChs_v124DtHPbf5N7-369" edge="1">
          <mxGeometry relative="1" as="geometry" />
        </mxCell>
        <mxCell id="06UChs_v124DtHPbf5N7-378" value="" style="rounded=0;whiteSpace=wrap;html=1;gradientColor=none;fillStyle=solid;fillColor=#000000;rotation=90;" parent="06UChs_v124DtHPbf5N7-386" vertex="1">
          <mxGeometry x="79.25" y="35" width="80" height="10" as="geometry" />
        </mxCell>
        <mxCell id="06UChs_v124DtHPbf5N7-374" style="rounded=0;orthogonalLoop=1;jettySize=auto;html=1;exitX=0;exitY=0;exitDx=0;exitDy=0;entryX=0.5;entryY=0;entryDx=0;entryDy=0;" parent="06UChs_v124DtHPbf5N7-386" source="06UChs_v124DtHPbf5N7-376" target="06UChs_v124DtHPbf5N7-378" edge="1">
          <mxGeometry relative="1" as="geometry" />
        </mxCell>
        <mxCell id="06UChs_v124DtHPbf5N7-395" value="" style="endArrow=none;html=1;rounded=0;" parent="1" edge="1">
          <mxGeometry width="50" height="50" relative="1" as="geometry">
            <mxPoint x="601.1377777777778" y="2190" as="sourcePoint" />
            <mxPoint x="591" y="2195.25" as="targetPoint" />
          </mxGeometry>
        </mxCell>
        <mxCell id="06UChs_v124DtHPbf5N7-396" value="&lt;font style=&quot;font-size: 10px;&quot;&gt;54&lt;/font&gt;" style="text;html=1;strokeColor=none;fillColor=none;align=center;verticalAlign=middle;whiteSpace=wrap;rounded=0;" parent="1" vertex="1">
          <mxGeometry x="575" y="2180" width="60" height="30" as="geometry" />
        </mxCell>
        <mxCell id="06UChs_v124DtHPbf5N7-398" value="&lt;font style=&quot;font-size: 10px;&quot;&gt;Продажі&lt;/font&gt;" style="text;html=1;strokeColor=none;fillColor=none;align=center;verticalAlign=middle;whiteSpace=wrap;rounded=0;" parent="1" vertex="1">
          <mxGeometry x="241" y="2126" width="53" height="30" as="geometry" />
        </mxCell>
        <mxCell id="06UChs_v124DtHPbf5N7-401" value="" style="endArrow=none;html=1;rounded=0;" parent="1" edge="1">
          <mxGeometry width="50" height="50" relative="1" as="geometry">
            <mxPoint x="482.36" y="2041.5" as="sourcePoint" />
            <mxPoint x="479.99777777777797" y="2057.5" as="targetPoint" />
          </mxGeometry>
        </mxCell>
        <mxCell id="06UChs_v124DtHPbf5N7-402" value="&lt;font style=&quot;font-size: 10px;&quot;&gt;54&lt;/font&gt;" style="text;html=1;strokeColor=none;fillColor=none;align=center;verticalAlign=middle;whiteSpace=wrap;rounded=0;" parent="1" vertex="1">
          <mxGeometry x="482" y="2039.5" width="13.5" height="8.5" as="geometry" />
        </mxCell>
      </root>
    </mxGraphModel>
  </diagram>
</mxfile>
